<?xml version="1.0" encoding="utf-8"?>
<!-- Generator: Adobe Illustrator 16.0.0, SVG Export Plug-In . SVG Version: 6.00 Build 0)  -->
<!DOCTYPE svg PUBLIC "-//W3C//DTD SVG 1.1//EN" "http://www.w3.org/Graphics/SVG/1.1/DTD/svg11.dtd">
<svg version="1.1" id="Layer_1" xmlns="http://www.w3.org/2000/svg" xmlns:xlink="http://www.w3.org/1999/xlink" x="0px" y="0px"
	 width="800px" height="191.333px" viewBox="0 0 800 191.333" enable-background="new 0 0 800 191.333" xml:space="preserve">
<polyline fill="#FBB03B" points="108,88 108,166 77,166 77,88 108,88 "/>
<g>
	<path d="M197.076,145.159V124.82h81.673c4.309,0,7.411-0.604,9.302-1.813c1.893-1.207,2.838-3.652,2.838-7.332v-5.834
		c0-3.362-0.946-5.753-2.838-7.174c-1.892-1.418-4.942-2.127-9.145-2.127h-51.242c-5.992,0-10.958-0.552-14.899-1.657
		c-3.942-1.103-7.071-2.784-9.382-5.045c-2.313-2.259-3.917-5.097-4.809-8.515c-0.894-3.414-1.34-7.436-1.34-12.062V67.9
		c0-5.463,0.577-10.142,1.735-14.032c1.155-3.887,2.941-7.016,5.36-9.38c2.417-2.366,5.57-4.1,9.461-5.204
		c3.887-1.103,8.514-1.655,13.875-1.655h80.751v20.339h-78.544c-3.681,0-6.386,0.709-8.12,2.129
		c-1.734,1.418-2.602,4.283-2.602,8.592v3.469c0,3.366,0.788,5.755,2.365,7.174c1.577,1.419,4.309,2.128,8.199,2.128h50.296
		c5.991,0,11.062,0.5,15.215,1.499c4.151,1,7.541,2.601,10.17,4.808c2.626,2.208,4.518,5.046,5.676,8.514
		c1.156,3.47,1.734,7.623,1.734,12.458v8.513c0,5.046-0.579,9.331-1.734,12.851c-1.158,3.523-3.049,6.385-5.676,8.593
		c-2.629,2.208-6.019,3.838-10.17,4.888c-4.153,1.051-9.224,1.576-15.215,1.576H197.076z"/>
	<path d="M430.583,145.159v-42.885h-78.834v42.885h-23.966V37.628h23.966V81.46h78.834V37.628h23.809v107.53H430.583z"/>
	<path d="M473.152,145.159V37.628h23.965v107.53H473.152z"/>
	<path d="M629.559,147.524c-2.522,0-4.863-0.395-7.016-1.182c-2.156-0.789-4.178-2.075-6.071-3.863L538.11,68.689v76.47h-22.231
		V45.197c0-3.363,1.183-5.858,3.548-7.49c2.365-1.627,5.438-2.443,9.223-2.443c2.733,0,4.992,0.37,6.78,1.104
		c1.786,0.737,3.256,1.683,4.416,2.838l78.992,76.155V37.628h22.704v99.963c0,3.575-1.104,6.125-3.311,7.647
		C636.024,146.761,633.131,147.524,629.559,147.524z"/>
	<path d="M700.036,145.159c-7.884,0-14.455-0.655-19.709-1.97c-5.258-1.313-9.46-3.416-12.614-6.307
		c-3.153-2.89-5.388-6.673-6.701-11.352c-1.316-4.677-1.97-10.43-1.97-17.265V74.523c0-6.725,0.654-12.456,1.97-17.187
		c1.313-4.73,3.548-8.539,6.701-11.431c3.154-2.89,7.356-4.99,12.614-6.306c5.254-1.313,11.825-1.971,19.709-1.971h75.131v20.339
		h-75.131c-3.47,0-6.309,0.291-8.515,0.868c-2.207,0.578-3.969,1.498-5.281,2.759c-1.316,1.261-2.209,2.944-2.682,5.044
		c-0.473,2.104-0.709,4.731-0.709,7.884v7.252h91.606v19.078H682.85v7.568c0,3.259,0.236,5.94,0.709,8.041
		c0.473,2.103,1.341,3.785,2.602,5.046s3.02,2.128,5.281,2.601c2.26,0.474,5.125,0.71,8.595,0.71h75.049v20.338H700.036z"/>
</g>
<polyline fill="#FBB03B" points="168.182,62.824 100.616,101.833 85.614,75.847 153.178,36.837 168.182,62.824 "/>
<rect x="42.326" y="30.323" transform="matrix(0.4999 -0.8661 0.8661 0.4999 -31.3778 84.3207)" fill="#FBB03B" width="30.006" height="78.019"/>
<polyline fill="#0071BC" points="166.181,114.854 151.177,140.836 83.612,101.83 98.614,75.843 166.181,114.854 "/>
<rect x="44.328" y="69.336" transform="matrix(0.5 0.866 -0.866 0.5 123.4955 2.7886)" fill="#0071BC" width="30.01" height="78.018"/>
<polyline fill="#0071BC" points="108,10 108,88 77,88 77,10 108,10 "/>
</svg>
